<?xml version="1.0" encoding="utf-8"?>
<!-- Generator: Adobe Illustrator 24.2.1, SVG Export Plug-In . SVG Version: 6.00 Build 0)  -->
<svg version="1.1" id="Layer_1" xmlns="http://www.w3.org/2000/svg" xmlns:xlink="http://www.w3.org/1999/xlink" x="0px" y="0px"
	 viewBox="0 0 848 201" style="enable-background:new 0 0 848 201;" xml:space="preserve">
<style type="text/css">
	.st0{fill:#E54D95;}
	.st1{fill:#28B4E9;}
	.st2{fill:none;stroke:#E54D95;stroke-width:7;stroke-linecap:round;stroke-miterlimit:10;}
	.st3{display:none;fill:none;stroke:#E54D95;stroke-width:7;stroke-linecap:round;stroke-miterlimit:10;}
	.st4{display:none;fill:#28B4E9;}
	.st5{display:none;}
	.st6{display:inline;fill:#28B4E9;}
	.st7{display:inline;}
	.st8{fill:none;stroke:#E54D95;stroke-width:7;stroke-linecap:round;stroke-miterlimit:10;stroke-dasharray:14.0222,14.0222;}
	.st9{fill:none;stroke:#E54D95;stroke-width:7;stroke-linecap:round;stroke-miterlimit:10;stroke-dasharray:17.4766,17.4766;}
	.st10{fill:none;stroke:#28B4E9;stroke-width:8;stroke-linecap:round;stroke-miterlimit:10;}
	.st11{fill:none;stroke:#E54D95;stroke-width:8;stroke-linecap:round;stroke-miterlimit:10;}
</style>
<g id="Layer_1_1_">
	<g>
		<path class="st0" d="M841,72.8h-8.3v79h8.3V72.8z M779.8,151.7v-47.8c5.2-1.7,10.3-2.3,15.2-2.3c3.2,0,6,0.6,8.3,1.1
			c2,0.6,3.7,1.7,4.6,3.2s1.7,2.9,2,4s0.6,2.9,0.6,4.3v37.5h8.3v-37.2c0-6.6-2-11.7-6-15.4s-9.4-5.4-16.6-5.4
			c-8.9,0-16.9,1.7-24.3,5.4v52.7C771.5,151.7,779.8,151.7,779.8,151.7z M751.7,142.6h-8.3v9.2h8.3V142.6z M722.5,72.8h-8.3v79h8.3
			V72.8z M668.2,105.9c2.6-2.9,6.6-4.3,12.3-4.3c3.7,0,6.6,0.9,9.2,2.6c2.6,1.7,4,3.7,5.2,6.3c0.9,2.6,1.7,4.6,1.7,6.3
			c0.3,1.7,0.6,2.9,0.6,4.3h-33.5C663.9,113.7,665.3,108.8,668.2,105.9L668.2,105.9z M657.6,138.6c1.7,4,3.7,6.9,6.6,8.9
			c2.9,2,5.4,3.4,8.3,4c2.9,0.9,6,1.1,9.2,1.1h0.3c7.7,0,14.6-1.4,20-4V140c-4.9,2.9-11.2,4.3-19.5,4.3c-6,0-10.3-1.4-13.5-4
			c-2.9-2.6-4.9-6.9-5.2-12.6h41.5l0.3-4v-2.6c0-0.6-0.3-2-0.6-4.3s-0.6-4.3-1.1-6.3c-0.6-1.7-1.4-3.7-2.9-6.3
			c-1.1-2.3-2.9-4.3-4.3-6c-1.7-1.4-4-2.9-6.9-4s-6-1.7-9.4-1.7c-16.9,0-25.2,10-25.2,29.8v0.6v0.6
			C655.3,129.7,656.2,134.6,657.6,138.6L657.6,138.6z M609.5,105.9c2.6-2.9,6.6-4.3,12.3-4.3c3.7,0,6.6,0.9,9.2,2.6
			c2.6,1.7,4,3.7,5.2,6.3c0.9,2.6,1.7,4.6,1.7,6.3c0.3,1.7,0.6,2.9,0.6,4.3H605C605.5,113.7,606.9,108.8,609.5,105.9L609.5,105.9z
			 M599.2,138.6c1.7,4,3.7,6.9,6.6,8.9c2.9,2,5.4,3.4,8.3,4c2.9,0.9,6,1.1,9.2,1.1h0.3c7.7,0,14.6-1.4,20-4V140
			c-4.9,2.9-11.2,4.3-19.5,4.3c-6,0-10.3-1.4-13.5-4c-2.9-2.6-4.9-6.9-5.2-12.6H647l0.3-4v-2.6c0-0.6-0.3-2-0.6-4.3
			s-0.6-4.3-1.1-6.3c-0.6-1.7-1.4-3.7-2.9-6.3c-1.4-2.3-2.9-4.3-4.3-6c-1.7-1.4-4-2.9-6.6-4c-2.9-1.1-6-1.7-9.4-1.7
			c-16.9,0-25.2,10-25.2,29.8v0.6v0.6C596.9,129.7,597.5,134.6,599.2,138.6L599.2,138.6z M551.7,106.2c2.9-3.4,7.4-5.2,13.5-5.2
			c4.9,0,9.7,0.9,14.3,2.9v31.2c0,6.6-5.2,10-15.2,10c-2,0-4-0.3-5.7-0.6s-3.4-1.4-5.2-2.9c-1.7-1.4-3.2-3.7-4.3-7.1
			c-1.1-3.4-1.7-7.4-1.7-12.3C547.4,115.1,548.8,109.7,551.7,106.2L551.7,106.2z M540.8,135.7c1.1,4,2.9,6.6,4.3,8.9
			c1.7,2,3.7,4,6.3,5.1c2.3,1.4,4.6,2,6.6,2.6s4,0.6,6.3,0.6c5.2,0,9.2-0.6,12.6-2c3.4-1.4,6-3.1,7.4-5.4c1.4-2.3,2.3-4,2.9-5.7
			c0.6-1.7,0.6-3.1,0.6-4.9V72.2h-8.3v23.2c-4.3-1.4-9.2-2.3-14.3-2.3c-3.4,0-6.6,0.6-9.2,1.1c-2.6,0.6-5.4,2.3-8.3,4
			c-2.9,2-4.9,5.2-6.6,8.9s-2.3,8.9-2.3,14.6C539.1,127.4,539.7,132,540.8,135.7L540.8,135.7z M517.4,151.7v-47.2
			c6.6-1.7,13.5-2.9,19.5-2.9v-8c-10,0-19.5,1.7-27.8,5.4v53L517.4,151.7L517.4,151.7z M473,101.1c6.6,0,11.2,1.7,14.3,5.2
			c2.9,3.4,4.3,9.2,4.3,16.9s-1.4,13.4-4.3,16.9c-2.9,3.4-7.7,5.1-14.3,5.1s-11.2-1.7-14.3-5.1c-2.9-3.4-4.3-9.2-4.3-16.9
			s1.4-13.4,4.3-16.9C461.9,102.8,466.4,101.1,473,101.1L473,101.1z M455.3,147.1c2.9,2,5.4,3.4,8.6,4.3c2.9,0.9,6,1.1,9.4,1.1
			s6.6-0.6,9.4-1.1c2.9-0.9,5.7-2.3,8.6-4.3s5.1-5.1,6.6-9.2s2.3-8.9,2.3-14.9c0-5.7-0.6-10.9-2.3-14.9c-1.7-4-4-7.2-6.6-9.2
			s-5.4-3.4-8.6-4.3c-2.9-0.9-6-1.4-9.4-1.4s-6.6,0.6-9.4,1.4c-2.9,0.9-5.7,2.3-8.6,4.3s-5.1,5.2-6.6,9.2c-1.7,4-2.6,8.9-2.6,14.9
			c0,5.7,0.6,10.9,2.6,14.9C450.1,142.3,452.4,145.1,455.3,147.1L455.3,147.1z M412.9,101.1c6.6,0,11.2,1.7,14.3,5.2
			c2.9,3.4,4.3,9.2,4.3,16.9s-1.4,13.4-4.3,16.9c-2.9,3.4-7.7,5.1-14.3,5.1s-11.2-1.7-14.3-5.1c-2.9-3.4-4.3-9.2-4.3-16.9
			s1.4-13.4,4.3-16.9C401.5,102.8,406.3,101.1,412.9,101.1L412.9,101.1z M394.9,147.1c2.9,2,5.4,3.4,8.6,4.3c2.9,0.9,6,1.1,9.4,1.1
			s6.6-0.6,9.7-1.1c2.9-0.9,5.7-2.3,8.6-4.3s5.1-5.1,6.6-9.2c1.7-4,2.6-8.9,2.6-14.9c0-5.7-0.9-10.9-2.6-14.9s-4-7.2-6.6-9.2
			s-5.4-3.4-8.6-4.3c-2.9-0.9-6-1.4-9.7-1.4c-3.4,0-6.6,0.6-9.4,1.4c-2.9,0.9-5.7,2.3-8.6,4.3s-5.1,5.2-6.6,9.2
			c-1.7,4-2.6,8.9-2.6,14.9c0,5.7,0.6,10.9,2.6,14.9C389.7,142.3,392,145.1,394.9,147.1L394.9,147.1z M353.1,151.7h8.3l22-57.5h-8.9
			L357,141.4l-17.2-47.2h-8.9L353.1,151.7z"/>
		<path class="st1" d="M247.9,106.2v27.5c0,6,1.7,10.6,4.9,14c3.1,3.4,7.7,5.1,13.5,5.1h0.3c3.1,0,6.3-0.6,8.9-1.7v-11.4
			c-1.7,0.9-4,1.1-6.6,1.1s-4.3-0.6-5.4-1.4c-0.9-0.9-1.7-2.6-1.7-5.1v-28h13.5v-12h-13.5v-17h-13.7v16.9h-9.7v12
			C237.9,106.2,247.9,106.2,247.9,106.2z M202.4,108.2c1.7-2.3,4.6-3.2,8-3.2s6.3,1.4,8,4c2,2.9,3.1,6,3.4,10h-23.2
			C199.2,114,200.4,110.5,202.4,108.2L202.4,108.2z M186.7,136.3c1.1,3.7,2.6,6.6,4.3,8.3c1.7,2,4,3.7,6.3,5.1
			c2.3,1.4,4.9,2,6.9,2.6c2.3,0.6,4.6,0.6,7.1,0.6c8,0,15.2-1.7,21.8-5.1v-11.2c-6.3,2.9-12.9,4.3-19.5,4.3c-4,0-7.7-0.9-10-2.6
			c-2.6-1.7-4-5.1-4.3-10h37.2c0.3-1.7,0.3-4,0.3-7.2c0-7.7-2-14.6-6.6-19.7c-4.6-5.2-10.9-7.7-19.2-7.7c-8.9,0-15.4,2.9-19.5,8.3
			s-6.3,12.9-6.3,22C185.2,128.6,185.8,132.8,186.7,136.3L186.7,136.3z M143.4,151.7v-18.9l4-4l19.2,22.6h17.5L156.3,120l25.2-25.5
			h-18.3l-19.5,21.2V73H130v79C129.7,151.7,143.4,151.7,143.4,151.7z M84.8,145.1c4.6,5.1,11.2,7.7,20,7.7c5.4,0,11.2-1.1,16.6-3.4
			v-11.2c-4.9,1.7-9.4,2.9-14.3,2.9c-5.2,0-9.2-1.1-11.7-3.7c-2.6-2.6-4-7.1-4-14s1.4-11.7,4-14c2.6-2.6,6.6-3.7,11.7-3.7
			c5.2,0,9.7,0.9,14.3,2.9V97.4c-5.4-2.6-11.2-3.7-16.6-3.7c-8.6,0-15.4,2.6-20,7.7s-7.2,12.3-7.2,22
			C77.9,132.8,80.2,140,84.8,145.1L84.8,145.1z M67.6,94.5H53.9V152h13.7V94.5z M67.9,74.2H53.6v12.6h14.3V74.2z M16.7,106.2v27.5
			c0,6,1.7,10.6,4.9,14c3.1,3.4,7.7,5.1,13.5,5.1h0.3c3.2,0,6.3-0.6,8.9-1.7v-11.4c-1.7,0.9-4,1.1-6.6,1.1s-4.3-0.6-5.4-1.4
			c-0.9-0.9-1.7-2.6-1.7-5.1v-28h13.5v-12h-14v-17H16.4v16.9H6.7v12C6.7,106.2,16.7,106.2,16.7,106.2z"/>
	</g>
</g>
<g id="Layer_2_1_">
	<path class="st2" d="M816.9,198.8"/>
	<path class="st3" d="M424.4,27.4c-57.6-6.7-105.5,36.4-107.6,83c-2.3,49.2,44.6,85.7,105.7,79.1c86.1-10.7,88,2,88,2"/>
	<g id="surface1_1_">
		<path class="st0" d="M313,43.1l9.3,0.8l-1.5,1.4c-0.4,0.4-0.4,1-0.1,1.5l4,4.3c0.2,0.2,0.5,0.3,0.8,0.3s0.6-0.1,0.8-0.2l15.3-14.1
			l-0.5-2.5l-0.7-3.3c-0.1-0.4,0.2-0.9,0.6-1c0.3-0.1,0.6,0,0.8,0.2c0.1,0.1,0.2,0.2,0.2,0.4l4.9,22.7c0.6,0.2,1.2,0.1,1.7-0.2
			c0.7-0.5,1.1-1.6,1.2-3.3l0.5-27.4v-0.8c0-0.5,0.4-0.8,0.8-0.8c0.5,0,0.8,0.4,0.8,0.8c0,0,0,0,0,0.1l-0.1,2.6l-0.1,3l12-11
			c3.5-3.2,4.3-7.7,2-10.2c-1.3-1.3-3.1-1.9-5-1.6c-2,0.3-3.9,1.3-5.4,2.7L341.8,20l-19.2-1.3c-2.4-0.1-4.1,0.4-5,1.7
			c-0.7,1.1-0.9,2.6-0.5,3.9c0.1,0.3,0.4,0.6,0.7,0.7l14,4.3l-5.6,5.2l-12,0.7c-0.5,0-0.9,0.4-1,0.9l-1.2,5.8
			c-0.1,0.6,0.2,1.2,0.8,1.3C313,43.1,313,43.1,313,43.1z"/>
	</g>
	<path class="st4" d="M169.5,33.5L169.5,33.5z"/>
	<g id="surface1_2_" class="st5">
		<path class="st6" d="M322.9,208.3l-8.3,4.3l1.9,0.7c0.5,0.2,0.8,0.8,0.6,1.4l-2,5.5c-0.1,0.3-0.3,0.5-0.6,0.6
			c-0.2,0.1-0.6,0.2-0.8,0.1l-19.5-7.2l-0.5-2.5l-0.6-3.3c-0.1-0.4-0.5-0.7-0.9-0.7c-0.3,0.1-0.5,0.2-0.6,0.5
			c-0.1,0.1-0.1,0.3,0,0.4l4.1,22.9c-0.5,0.4-1.1,0.6-1.6,0.5c-0.9-0.1-1.7-1.1-2.4-2.6l-10.9-25.2l-0.3-0.7
			c-0.2-0.4-0.6-0.6-1.1-0.5c-0.4,0.2-0.6,0.6-0.5,1.1c0,0,0,0,0,0.1l1.1,2.4l1.2,2.8l-15.3-5.6c-4.4-1.6-6.9-5.5-5.7-8.7
			c0.7-1.7,2.2-3,4-3.3c2-0.5,4.1-0.3,6,0.4l17.3,6.4l17.3-8.5c2.2-1,4-1.2,5.3-0.4c1.1,0.8,1.8,2,1.9,3.4c0,0.3-0.1,0.7-0.4,0.9
			l-11.3,9.3l7.2,2.7l11.3-3.9c0.5-0.1,1,0,1.2,0.4l3.3,4.9c0.3,0.5,0.2,1.2-0.3,1.5C322.9,208.3,322.9,208.3,322.9,208.3z"/>
	</g>
	<path class="st4" d="M1033.1,176.9L1033.1,176.9z"/>
	<g class="st5">
		<g class="st7">
			<path class="st2" d="M124.5,27.5c2.5,0.6,5.1,1.2,7.8,1.8"/>
			<path class="st8" d="M146.1,31.9c11.6,1.8,24.8,2.9,39.4,2.6c13.9-0.3,26.5-1.8,37.3-3.8"/>
			<path class="st2" d="M229.7,29.3c2.7-0.6,5.3-1.2,7.8-1.8"/>
		</g>
	</g>
	<g class="st5">
		<g class="st7">
			<path class="st2" d="M334,215.4c2.3,0.9,4.8,1.8,7.5,2.8"/>
			<path class="st9" d="M358.2,223.4c16.4,4.3,37.2,7.8,61.3,7.1c27.8-0.8,50.8-6.8,67.7-12.9"/>
			<path class="st2" d="M495.3,214.4c2.7-1.1,5.1-2.2,7.3-3.2"/>
		</g>
	</g>
	<path class="st4" d="M744,25.4L744,25.4z"/>
	<path class="st10" d="M317,57c-24.1,36.3-18.5,84.4,12,113c32.7,30.7,85.9,30.9,120.2-1.1"/>
	<path class="st11" d="M319,117"/>
	<path class="st11" d="M364,15"/>
</g>
</svg>
